PathFileType	4	(X/Y/Z)	T1_P1_Vision_NoMovement_2_0-682.trc
DataRate	CameraRate	NumFrames	NumMarkers	Units	OrigDataRate	OrigDataStartFrame	OrigNumFrames
60	60	4	27	m	60	170	682
Frame#	Time	RHip			RKnee			RAnkle			RBigToe			RSmallToe			RHeel			LHip			LKnee			LAnkle			LBigToe			LSmallToe			LHeel			Neck			Head			Nose			RShoulder			RElbow			RWrist			RThumb			RIndex			RPinky			LShoulder			LElbow			LWrist			LThumb			LIndex			LPinky		
		X1	Y1	Z1	X2	Y2	Z2	X3	Y3	Z3	X4	Y4	Z4	X5	Y5	Z5	X6	Y6	Z6	X7	Y7	Z7	X8	Y8	Z8	X9	Y9	Z9	X10	Y10	Z10	X11	Y11	Z11	X12	Y12	Z12	X13	Y13	Z13	X14	Y14	Z14	X15	Y15	Z15	X16	Y16	Z16	X17	Y17	Z17	X18	Y18	Z18	X19	Y19	Z19	X20	Y20	Z20	X21	Y21	Z21	X22	Y22	Z22	X23	Y23	Z23	X24	Y24	Z24	X25	Y25	Z25	X26	Y26	Z26	X27	Y27	Z27
171	2.85	-65.10026310382989	3761.0930781979187	-545.0880054156423	284.89767612206936	3914.508270500644	-518.6902468292001	640.8723764445169	4151.020550573751	-526.4566330835004	703.9249498745485	4036.862470901168	-469.66544639485335	692.6805110310729	3980.478602634348	-507.91965128281936	678.5338380580646	4191.6074465192805	-531.4087776835734	-102.75910448027305	3884.545256225929	-343.82357837226334	240.9405090059115	3968.16421562927	-365.287303887753	623.067934650828	4238.525752697996	-442.02447189531784	669.8563462173763	3995.8865014798666	-352.01042598610474	677.8161339225256	4128.608322251775	-345.15528789924997	668.8763376348752	4303.93912717337	-482.0477433400537	-667.1427212115116	3685.61366982419	-518.209112256429	-910.5901940545077	3533.6933294939126	-436.56362195490334	-772.3033298103787	3557.060640975931	-413.6121798240093	-561.8993750072873	3687.0361664990573	-680.8595063722903	-284.97490723755243	3640.2828510473773	-680.9805508670203	-24.53316853482911	3638.0869041334854	-625.3503719221076	86.7950547948832	3743.892562320673	-563.3081636149066	113.77780957971447	3691.546350953784	-556.05240604206	100.84010424807357	3628.542640056793	-579.800516812681	-610.1828845638663	3756.1818798768777	-357.84642255675016	-392.3590332541117	3979.298470350937	-339.2437329389276	-134.52542280313705	3937.8134989824157	-223.05616240546232	-3.1789986472802454	3826.8592954271726	-216.25189056357917	16.66827610678582	3899.605982057199	-204.77379023465915	-2.9858673184062585	3952.9964398852917	-195.4804766329067
172	2.8666666666666667	-65.09793570904003	3761.2175605006714	-545.1522513865791	287.7941129354835	3912.778996312297	-516.0802683066382	641.9367017281261	4148.586996156225	-526.5094682949729	700.1348868841208	4032.3818359822058	-464.78094562064564	690.1753594828259	3973.1521043709054	-502.3348542677155	678.4852932052552	4186.725418314713	-530.310573056623	-102.77945484646312	3884.6897075465004	-343.884284238733	240.84313227003153	3973.3551126438306	-367.0663668921989	623.8301751566835	4246.47706475839	-449.75244243150235	668.1840452163319	3994.833359766839	-351.33931762009956	674.445514900371	4130.180934523083	-345.1770166186163	669.4749085006117	4311.767125916778	-488.2407841760494	-667.6122207973838	3685.6391302102925	-518.757379607679	-911.7399326659236	3535.0743035539344	-436.8405458621173	-772.1847719831278	3552.3580900871	-412.4118840365095	-561.8899821849457	3686.9974258291613	-680.8322767353618	-284.97603249155225	3640.21190599204	-680.9801523762362	-23.82399572465165	3639.4306351623636	-626.4088548866093	88.65958678905581	3744.129412401151	-563.1001550093945	115.3293189569712	3694.2357676177216	-556.4783253458845	100.71963542032958	3628.5025005679745	-580.3305338547837	-610.1672898890691	3756.2007606638704	-357.87116513282353	-392.34507253907725	3979.296718649686	-339.2326964656711	-134.5837527647048	3935.022250489462	-221.22985123001922	-1.3612460282771401	3829.070312888807	-217.9675456535207	18.44700588407012	3899.606649265112	-204.2308210991888	-2.2545383523647224	3953.436454733119	-195.6441845120234
173	2.8833333333333333	-65.09117188459304	3761.8039387116505	-545.569156651054	289.0943744718786	3912.2188471423606	-515.1122372144016	641.0927127111761	4142.818941149588	-526.1800062225275	698.9834281268397	4035.67255413805	-462.0514381921654	688.3759732876279	3967.1387594228104	-497.93768596428026	676.0272512042943	4176.461336484014	-528.2975585149964	-102.82636210463396	3884.8436253965683	-343.9566309483106	239.77922942516915	3983.82958487801	-369.34800355753663	623.7581467508641	4252.649517481152	-455.6005553580751	667.7494989021736	3995.1203355715634	-350.5976599853338	672.5219039747359	4138.439903308221	-346.38448034780083	670.4084994792781	4318.15247541527	-493.57093425709434	-667.8158298403786	3685.9045949330725	-519.2893050521556	-912.3765249952103	3535.898761643205	-437.0149052273058	-772.6331720287429	3552.7261521683117	-412.4166055466555	-561.883537377037	3686.9880545244587	-680.8204652009459	-284.98096657619897	3640.183848788782	-680.9985901280761	-22.652071307596383	3638.0144953156223	-625.1351106757825	89.76764578841554	3743.1773137958226	-562.7528055049025	116.67329047404334	3694.157122874146	-556.1941137817104	99.55804955783574	3628.049442343983	-581.2580321546833	-610.15038984392	3756.206324815693	-357.8428608469835	-392.3649321189866	3979.3368847155	-339.38896284820646	-134.60459085451475	3933.8610325360305	-220.4788122782897	0.3434153356143704	3830.777234160104	-220.63504892894838	19.84562595496412	3897.4728884763363	-202.83330171903873	-1.7587626748568916	3953.745810362539	-195.77363653404575
174	2.9	-65.09894953263492	3762.0790266159206	-545.7571942944313	288.1368394901955	3914.049357727679	-516.5181221321733	638.4858703650108	4137.012886612916	-525.6183804034775	700.7488325239746	4042.5759649231923	-462.1907897503539	687.8464234336899	3964.7800150200005	-496.27029046473467	672.7554483805445	4167.488629931292	-526.6881597471346	-102.85669781148746	3884.8996990536516	-343.97580937295663	238.13221904402837	3992.8209014811405	-370.79492173469924	622.8522443689192	4254.512676942132	-456.8844363287892	667.8288090944233	3995.8057969606116	-350.2794474968912	673.1501629555922	4147.165537702775	-347.9033282029	670.9502077080909	4320.8218473102625	-495.84906002778575	-667.892623509825	3685.9744953316917	-518.4807556247277	-911.6905173145443	3534.744847071837	-436.7743832906384	-773.0481759381278	3556.57301034993	-413.1983521055314	-561.885497945226	3687.0062571685053	-680.815716588459	-284.9788689060775	3640.1342704381395	-680.9891963332898	-21.60638060890417	3635.604880863421	-623.1356504716799	89.11265335544458	3742.0454403558324	-562.6282274923661	117.36229011063757	3693.4302171236454	-555.8338332969066	97.74640217980165	3627.3364179030377	-581.8396937873341	-610.1395319547162	3756.199494539902	-357.80594531332474	-392.406078015621	3979.3369290585174	-339.4907364317871	-134.57127637161267	3935.3936612465586	-221.49565751285584	1.1785960858730988	3831.7209184837247	-222.5879107437159	20.365137376210484	3895.633132187823	-201.72389534933984	-2.0178120875647925	3953.5283276601294	-195.696938041171
